<svg width="80" height="71" viewBox="0 0 80 71" fill="none" xmlns="http://www.w3.org/2000/svg">
<path d="M73.8462 0H6.15385C4.52174 0 2.95649 0.675517 1.80242 1.87794C0.64835 3.08037 0 4.71121 0 6.4117V64.117C0 65.8175 0.64835 67.4484 1.80242 68.6508C2.95649 69.8532 4.52174 70.5287 6.15385 70.5287H73.8462C75.4783 70.5287 77.0435 69.8532 78.1976 68.6508C79.3516 67.4484 80 65.8175 80 64.117V6.4117C80 4.71121 79.3516 3.08037 78.1976 1.87794C77.0435 0.675517 75.4783 0 73.8462 0ZM73.8462 6.4117V47.5869L63.8192 37.1438C63.2478 36.5483 62.5693 36.0758 61.8226 35.7535C61.0759 35.4312 60.2756 35.2653 59.4673 35.2653C58.6591 35.2653 57.8587 35.4312 57.112 35.7535C56.3653 36.0758 55.6868 36.5483 55.1154 37.1438L47.4231 45.1584L30.5 27.5262C29.346 26.3247 27.7814 25.6498 26.15 25.6498C24.5186 25.6498 22.954 26.3247 21.8 27.5262L6.15385 43.828V6.4117H73.8462ZM6.15385 52.8965L26.1538 32.0585L56.9231 64.117H6.15385V52.8965ZM73.8462 64.117H65.6269L51.7808 49.6907L59.4731 41.6761L73.8462 56.6554V64.117ZM46.1538 24.0439C46.1538 23.0928 46.4245 22.1631 46.9317 21.3723C47.4388 20.5815 48.1597 19.9651 49.003 19.6012C49.8464 19.2372 50.7743 19.142 51.6696 19.3275C52.5649 19.5131 53.3873 19.971 54.0328 20.6436C54.6783 21.3161 55.1178 22.1729 55.2959 23.1057C55.474 24.0386 55.3826 25.0054 55.0333 25.8841C54.684 26.7628 54.0924 27.5138 53.3334 28.0422C52.5744 28.5706 51.6821 28.8527 50.7692 28.8527C49.5452 28.8527 48.3712 28.346 47.5057 27.4442C46.6401 26.5424 46.1538 25.3193 46.1538 24.0439Z" fill="#33415C"/>
</svg>
