<svg width="24" height="23" viewBox="0 0 24 23" fill="none" xmlns="http://www.w3.org/2000/svg">
<path d="M7.19802 17.8403C5.87838 17.8403 4.81068 18.8439 4.81068 20.0704C4.81068 21.2969 5.87838 22.3004 7.19802 22.3004C8.51765 22.3004 9.59736 21.2969 9.59736 20.0704C9.59736 18.8439 8.51765 17.8403 7.19802 17.8403ZM0 1.11502C0 1.72828 0.539851 2.23004 1.19967 2.23004H2.39934L6.71815 10.6931L5.0986 13.4137C4.22284 14.9078 5.37452 16.7253 7.19802 16.7253H20.3944C21.0542 16.7253 21.5941 16.2236 21.5941 15.6103C21.5941 14.997 21.0542 14.4953 20.3944 14.4953H7.19802L8.51766 12.2652H17.4552C18.3549 12.2652 19.1467 11.8081 19.5546 11.1168L23.8494 3.88028C23.9505 3.71127 24.0024 3.52065 23.9999 3.32729C23.9974 3.13392 23.9406 2.94452 23.8352 2.77781C23.7298 2.6111 23.5793 2.47287 23.3988 2.3768C23.2182 2.28073 23.0138 2.23014 22.8057 2.23004H5.05061L4.24683 0.635563C4.15041 0.445236 3.99766 0.284377 3.80644 0.171819C3.61523 0.0592606 3.39347 -0.000337696 3.16713 1.43932e-06H1.19967C0.539851 1.43932e-06 0 0.501761 0 1.11502ZM19.1947 17.8403C17.8751 17.8403 16.8074 18.8439 16.8074 20.0704C16.8074 21.2969 17.8751 22.3004 19.1947 22.3004C20.5144 22.3004 21.5941 21.2969 21.5941 20.0704C21.5941 18.8439 20.5144 17.8403 19.1947 17.8403Z" fill="black"/>
</svg>
