<svg width="30" height="30" viewBox="0 0 30 30" fill="none" xmlns="http://www.w3.org/2000/svg">
<circle cx="15" cy="15" r="15" fill="#00B0ED"/>
<g clip-path="url(#clip0_166_165)">
<path d="M6 7.75C6 7.33437 6.3158 7 6.70833 7H8.05122C8.70052 7 9.27604 7.4 9.54462 8H21.6748C22.451 8 23.0177 8.78125 22.8141 9.575L21.604 14.3344C21.3531 15.3156 20.512 16 19.5528 16H11.038L11.1974 16.8906C11.2623 17.2437 11.5545 17.5 11.8939 17.5H20.4028C20.7953 17.5 21.1111 17.8344 21.1111 18.25C21.1111 18.6656 20.7953 19 20.4028 19H11.8939C10.8727 19 9.99618 18.2312 9.80729 17.1719L8.28437 8.70312C8.26372 8.58438 8.16632 8.5 8.05122 8.5H6.70833C6.3158 8.5 6 8.16562 6 7.75ZM9.77778 21.5C9.77778 21.303 9.81442 21.108 9.88561 20.926C9.95681 20.744 10.0612 20.5786 10.1927 20.4393C10.3243 20.3001 10.4804 20.1896 10.6523 20.1142C10.8242 20.0388 11.0084 20 11.1944 20C11.3805 20 11.5647 20.0388 11.7366 20.1142C11.9085 20.1896 12.0646 20.3001 12.1962 20.4393C12.3277 20.5786 12.4321 20.744 12.5033 20.926C12.5745 21.108 12.6111 21.303 12.6111 21.5C12.6111 21.697 12.5745 21.892 12.5033 22.074C12.4321 22.256 12.3277 22.4214 12.1962 22.5607C12.0646 22.6999 11.9085 22.8104 11.7366 22.8858C11.5647 22.9612 11.3805 23 11.1944 23C11.0084 23 10.8242 22.9612 10.6523 22.8858C10.4804 22.8104 10.3243 22.6999 10.1927 22.5607C10.0612 22.4214 9.95681 22.256 9.88561 22.074C9.81442 21.892 9.77778 21.697 9.77778 21.5ZM19.6944 20C20.0702 20 20.4305 20.158 20.6962 20.4393C20.9619 20.7206 21.1111 21.1022 21.1111 21.5C21.1111 21.8978 20.9619 22.2794 20.6962 22.5607C20.4305 22.842 20.0702 23 19.6944 23C19.3187 23 18.9584 22.842 18.6927 22.5607C18.427 22.2794 18.2778 21.8978 18.2778 21.5C18.2778 21.1022 18.427 20.7206 18.6927 20.4393C18.9584 20.158 19.3187 20 19.6944 20ZM13.4375 12C13.4375 12.3438 13.7031 12.625 14.0278 12.625H15.3264V14C15.3264 14.3438 15.592 14.625 15.9167 14.625C16.2413 14.625 16.5069 14.3438 16.5069 14V12.625H17.8056C18.1302 12.625 18.3958 12.3438 18.3958 12C18.3958 11.6562 18.1302 11.375 17.8056 11.375H16.5069V10C16.5069 9.65625 16.2413 9.375 15.9167 9.375C15.592 9.375 15.3264 9.65625 15.3264 10V11.375H14.0278C13.7031 11.375 13.4375 11.6562 13.4375 12Z" fill="#F1F4FF"/>
</g>
<defs>
<clipPath id="clip0_166_165">
<rect width="17" height="16" fill="white" transform="translate(6 7)"/>
</clipPath>
</defs>
</svg>
