<svg width="93" height="93" viewBox="0 0 93 93" fill="none" xmlns="http://www.w3.org/2000/svg">
<path d="M73.8073 27.201C75.3976 28.8023 75.3976 31.4028 73.8073 33.0041L41.2395 65.799C39.6493 67.4003 37.0668 67.4003 35.4766 65.799L19.1927 49.4016C17.6024 47.8003 17.6024 45.1997 19.1927 43.5984C20.7829 41.9971 23.3654 41.9971 24.9556 43.5984L38.3644 57.0879L68.0571 27.201C69.6473 25.5997 72.2298 25.5997 73.8201 27.201H73.8073Z" fill="#2ADD72"/>
<path d="M93 46.5C93 72.1812 72.1812 93 46.5 93C20.8188 93 0 72.1812 0 46.5C0 20.8188 20.8188 0 46.5 0C72.1812 0 93 20.8188 93 46.5ZM7.3546 46.5C7.3546 68.1194 24.8806 85.6454 46.5 85.6454C68.1194 85.6454 85.6454 68.1194 85.6454 46.5C85.6454 24.8806 68.1194 7.3546 46.5 7.3546C24.8806 7.3546 7.3546 24.8806 7.3546 46.5Z" fill="#2ADD72"/>
</svg>
