<svg width="24" height="29" viewBox="0 0 24 29" fill="none" xmlns="http://www.w3.org/2000/svg">
<path d="M17.625 3.28125V5.625H21.8438C22.2167 5.625 22.5744 5.77316 22.8381 6.03688C23.1018 6.3006 23.25 6.65829 23.25 7.03125C23.25 7.40421 23.1018 7.7619 22.8381 8.02562C22.5744 8.28934 22.2167 8.4375 21.8438 8.4375H2.15625C1.78329 8.4375 1.4256 8.28934 1.16188 8.02562C0.898158 7.7619 0.75 7.40421 0.75 7.03125C0.75 6.65829 0.898158 6.3006 1.16188 6.03688C1.4256 5.77316 1.78329 5.625 2.15625 5.625H6.375V3.28125C6.375 1.47 7.845 0 9.65625 0H14.3438C16.155 0 17.625 1.47 17.625 3.28125ZM5.43 12.5156L6.6675 24.8906C6.67913 25.0063 6.73335 25.1136 6.81963 25.1915C6.90591 25.2695 7.01809 25.3126 7.13438 25.3125H16.8656C16.9819 25.3126 17.0941 25.2695 17.1804 25.1915C17.2666 25.1136 17.3209 25.0063 17.3325 24.8906L18.57 12.5156C18.6165 12.1524 18.8028 11.8216 19.0894 11.5936C19.376 11.3657 19.7402 11.2585 20.1046 11.2949C20.469 11.3313 20.8048 11.5084 21.0407 11.7885C21.2765 12.0687 21.3938 12.4297 21.3675 12.795L20.13 25.17C20.0499 25.9799 19.6713 26.7311 19.0679 27.2773C18.4646 27.8235 17.6795 28.1257 16.8656 28.125H7.13438C6.32102 28.1249 5.53668 27.8227 4.93351 27.277C4.33035 26.7314 3.95134 25.9812 3.87 25.1719L2.6325 12.7969C2.60902 12.6107 2.62304 12.4217 2.67373 12.241C2.72443 12.0603 2.81078 11.8916 2.92769 11.7448C3.0446 11.598 3.18971 11.4761 3.35447 11.3863C3.51923 11.2964 3.70031 11.2405 3.88703 11.2217C4.07375 11.2029 4.26234 11.2217 4.44168 11.277C4.62103 11.3322 4.7875 11.4228 4.93129 11.5434C5.07509 11.664 5.19329 11.8121 5.27894 11.9791C5.36459 12.1461 5.41595 12.3285 5.43 12.5156ZM9.1875 3.28125V5.625H14.8125V3.28125C14.8125 3.15693 14.7631 3.0377 14.6752 2.94979C14.5873 2.86189 14.4681 2.8125 14.3438 2.8125H9.65625C9.53193 2.8125 9.4127 2.86189 9.32479 2.94979C9.23689 3.0377 9.1875 3.15693 9.1875 3.28125Z" fill="black"/>
</svg>
