<svg width="376" height="191" viewBox="0 0 376 191" fill="none" xmlns="http://www.w3.org/2000/svg">
<path d="M27.5 189.5L106 143V22.5L27.5 69" stroke="url(#paint0_linear_70_328)" stroke-width="3"/>
<path d="M41 80.5L93.5 49.5V131L41 163" stroke="url(#paint1_linear_70_328)" stroke-width="3"/>
<path d="M3 50L79.5 3V13L98 26.5" stroke="url(#paint2_linear_70_328)" stroke-width="3"/>
<path d="M27.5 69C11.8872 67.6142 6.62511 62.9863 2 49.5" stroke="url(#paint3_linear_70_328)" stroke-width="3"/>
<path d="M5 55.5L77 12L80 14" stroke="url(#paint4_linear_70_328)" stroke-width="3"/>
<path d="M2 50.5V173C9.2643 185.036 14.592 189.084 27.5 189" stroke="url(#paint5_linear_70_328)" stroke-width="3"/>
<path d="M41 80.5V163" stroke="url(#paint6_linear_70_328)" stroke-width="3"/>
<path d="M28.5 69.5V188.5" stroke="url(#paint7_linear_70_328)" stroke-width="3"/>
<path d="M2 162.5C7.37712 173.965 13.0598 177.599 28.5 178.5" stroke="url(#paint8_linear_70_328)" stroke-width="3"/>
<path d="M9 157V85.5C12.7222 88.8121 15.0603 90.2463 20 91.5V162C17.0974 161.487 15.007 160.721 9 157Z" stroke="url(#paint9_linear_70_328)" stroke-width="3"/>
<path d="M2.5 65C4.5 71 14.1394 79.9429 27 79.5" stroke="url(#paint10_linear_70_328)" stroke-width="3"/>
<path d="M148.376 126.104C144.344 126.104 141.432 125.24 139.64 123.512C137.912 121.784 137.048 119.864 137.048 117.752C137.048 115.576 137.912 113.56 139.64 111.704C141.368 109.848 143.704 108.92 146.648 108.92C147.544 108.92 148.472 109.016 149.432 109.208C150.008 109.272 150.424 109.496 150.68 109.88C151 110.264 151.16 110.648 151.16 111.032C151.16 111.416 151 111.736 150.68 111.992C150.36 112.248 149.912 112.312 149.336 112.184C149.016 112.056 148.696 111.992 148.376 111.992C148.056 111.992 147.736 111.992 147.416 111.992C145.432 111.992 143.8 112.6 142.52 113.816C141.304 115.032 140.696 116.344 140.696 117.752C140.696 119.032 141.272 120.152 142.424 121.112C143.64 122.136 145.624 122.648 148.376 122.648C152.024 122.648 155.32 121.944 158.264 120.536C161.272 119.128 163.992 117.272 166.424 114.968C168.856 112.664 171.096 110.168 173.144 107.48C175.256 104.728 177.24 102.072 179.096 99.512C181.784 95.736 184.568 91.832 187.448 87.8C190.328 83.704 193.208 79.8 196.088 76.088C198.968 72.376 201.848 69.176 204.728 66.488C203.064 66.104 201.272 65.816 199.352 65.624C197.432 65.432 195.352 65.336 193.112 65.336C186.328 65.336 180.376 65.976 175.256 67.256C170.2 68.472 165.88 70.072 162.296 72.056C158.776 74.04 155.992 76.184 153.944 78.488C151.896 80.792 150.52 83 149.816 85.112C149.368 86.52 149.144 87.928 149.144 89.336C149.144 91.512 149.784 93.144 151.064 94.232C152.408 95.32 154.136 95.864 156.248 95.864C158.36 95.864 160.792 95.288 163.544 94.136C166.36 92.92 169.208 91.032 172.088 88.472C174.968 85.848 177.592 82.456 179.96 78.296C180.344 77.656 180.824 77.336 181.4 77.336C182.36 77.336 182.84 77.816 182.84 78.776C182.84 79.096 182.744 79.448 182.552 79.832C179.992 84.312 177.144 87.992 174.008 90.872C170.936 93.752 167.832 95.896 164.696 97.304C161.624 98.648 158.744 99.32 156.056 99.32C153.048 99.32 150.552 98.488 148.568 96.824C146.584 95.096 145.592 92.664 145.592 89.528C145.592 87.8 145.912 85.976 146.552 84.056C147.384 81.432 148.984 78.808 151.352 76.184C153.72 73.56 156.824 71.192 160.664 69.08C164.568 66.904 169.208 65.176 174.584 63.896C180.024 62.552 186.2 61.88 193.112 61.88C195.992 61.88 198.648 62.04 201.08 62.36C203.576 62.68 205.816 63.128 207.8 63.704C209.592 62.168 211.352 60.984 213.08 60.152C214.872 59.32 216.6 58.904 218.264 58.904C218.904 58.904 219.416 59.096 219.8 59.48C220.184 59.864 220.376 60.248 220.376 60.632C220.376 61.4 219.896 61.784 218.936 61.784C216.888 61.784 214.456 62.872 211.64 65.048C215.416 66.648 218.168 68.728 219.896 71.288C221.688 73.784 222.584 76.472 222.584 79.352C222.584 82.232 221.72 85.144 219.992 88.088C218.328 91.032 215.896 93.752 212.696 96.248C209.56 98.68 205.752 100.632 201.272 102.104C196.792 103.576 191.8 104.312 186.296 104.312C185.272 104.312 184.248 104.28 183.224 104.216C182.2 104.152 181.24 104.056 180.344 103.928C177.464 107.832 174.488 111.48 171.416 114.872C168.344 118.2 164.92 120.888 161.144 122.936C157.432 125.048 153.176 126.104 148.376 126.104ZM183.416 99.704C183.288 99.896 183.16 100.088 183.032 100.28C182.904 100.408 182.776 100.568 182.648 100.76C183.8 100.824 184.92 100.856 186.008 100.856C190.936 100.856 195.416 100.216 199.448 98.936C203.544 97.656 207.064 95.96 210.008 93.848C212.952 91.736 215.192 89.432 216.728 86.936C218.328 84.44 219.128 81.944 219.128 79.448C219.128 77.016 218.264 74.744 216.536 72.632C214.872 70.52 212.248 68.824 208.664 67.544C205.4 70.488 202.328 73.784 199.448 77.432C196.632 81.016 193.88 84.728 191.192 88.568C188.568 92.408 185.976 96.12 183.416 99.704ZM222.881 119.48C221.089 119.48 219.745 118.968 218.849 117.944C218.017 116.856 217.601 115.512 217.601 113.912C217.601 112.12 218.113 110.04 219.137 107.672C220.225 105.24 221.633 102.744 223.361 100.184C225.089 97.624 226.977 95.256 229.025 93.08C231.137 90.84 233.249 89.048 235.361 87.704C237.473 86.296 239.425 85.592 241.217 85.592C242.433 85.592 243.617 85.784 244.769 86.168C245.921 86.488 246.849 87.16 247.553 88.184C248.321 89.208 248.705 90.712 248.705 92.696C248.705 93.4 248.513 93.912 248.129 94.232C247.745 94.552 247.393 94.712 247.073 94.712C246.369 94.712 246.017 94.456 246.017 93.944C245.697 91.896 245.025 90.552 244.001 89.912C243.041 89.272 242.113 88.952 241.217 88.952C239.937 88.952 238.433 89.592 236.705 90.872C234.977 92.152 233.217 93.784 231.425 95.768C229.633 97.752 227.937 99.896 226.337 102.2C224.801 104.44 223.553 106.616 222.593 108.728C221.633 110.776 221.153 112.472 221.153 113.816C221.153 114.456 221.249 115.032 221.441 115.544C221.697 116.056 222.081 116.312 222.593 116.312C223.553 116.312 224.801 115.8 226.337 114.776C227.873 113.752 229.505 112.44 231.233 110.84C233.025 109.176 234.785 107.448 236.513 105.656C238.241 103.864 239.809 102.168 241.217 100.568C242.625 98.968 243.713 97.688 244.481 96.728C244.865 96.152 245.345 95.864 245.921 95.864C246.369 95.864 246.785 96.024 247.169 96.344C247.553 96.664 247.745 97.08 247.745 97.592C247.745 97.848 247.649 98.136 247.457 98.456C247.009 99.16 246.465 100.152 245.825 101.432C245.249 102.712 244.641 104.088 244.001 105.56C243.425 107.032 242.913 108.408 242.465 109.688C242.081 110.904 241.889 111.832 241.889 112.472C241.889 113.112 242.113 113.432 242.561 113.432C242.881 113.432 243.265 113.272 243.713 112.952C244.225 112.632 244.673 112.344 245.057 112.088C246.593 110.808 248.065 109.464 249.473 108.056C250.881 106.584 252.161 105.208 253.313 103.928C253.569 103.608 253.889 103.448 254.273 103.448C254.593 103.448 254.881 103.64 255.137 104.024C255.457 104.344 255.617 104.76 255.617 105.272C255.617 105.848 255.457 106.328 255.137 106.712C254.113 108.056 252.769 109.56 251.105 111.224C249.441 112.824 247.969 114.104 246.689 115.064C245.857 115.64 244.865 116.216 243.713 116.792C242.625 117.304 241.569 117.56 240.545 117.56C239.777 117.56 239.137 117.336 238.625 116.888C238.113 116.376 237.857 115.512 237.857 114.296C237.857 113.336 238.017 112.248 238.337 111.032C238.657 109.816 239.041 108.568 239.489 107.288C237.697 109.208 235.777 111.096 233.729 112.952C231.681 114.808 229.697 116.376 227.777 117.656C225.921 118.872 224.289 119.48 222.881 119.48ZM292.864 103.448C293.184 103.448 293.472 103.64 293.728 104.024C294.048 104.344 294.208 104.76 294.208 105.272C294.208 105.848 294.048 106.328 293.728 106.712C292.768 108.056 291.424 109.56 289.696 111.224C288.032 112.824 286.56 114.104 285.28 115.064C282.848 116.856 280.224 118.2 277.408 119.096C276 119.544 274.464 119.864 272.8 120.056C271.136 120.248 269.472 120.344 267.808 120.344C266.4 121.048 265.024 121.592 263.68 121.976C262.4 122.424 261.12 122.648 259.84 122.648C258.688 122.648 257.6 122.36 256.576 121.784C255.616 121.272 254.88 120.44 254.368 119.288C254.304 119.096 254.24 118.904 254.176 118.712C254.112 118.52 254.048 118.328 253.984 118.136C252.96 120.632 251.712 123.448 250.24 126.584C248.832 129.784 247.2 133.016 245.343 136.28C243.423 139.544 241.279 142.616 238.911 145.496C236.479 148.44 233.791 150.936 230.847 152.984C229.247 154.136 227.519 154.712 225.663 154.712C224.511 154.712 223.551 154.392 222.783 153.752C221.951 153.176 221.535 152.248 221.535 150.968C221.535 148.472 222.271 145.848 223.743 143.096C225.215 140.408 227.135 137.688 229.503 134.936C231.871 132.248 234.431 129.624 237.183 127.064C239.871 124.504 242.463 122.104 244.959 119.864C247.456 117.688 249.536 115.768 251.2 114.104C251.648 113.336 252.256 112.152 253.023 110.552C253.792 108.952 254.592 107.16 255.424 105.176C256.32 103.128 257.12 101.048 257.824 98.936C258.592 96.824 259.168 94.872 259.552 93.08C259.936 91.288 260.032 89.848 259.84 88.76C259.712 87.864 259.872 87.16 260.32 86.648C260.832 86.136 261.408 85.88 262.048 85.88C262.496 85.88 262.88 86.072 263.2 86.456C263.584 86.776 263.776 87.288 263.776 87.992C263.776 89.784 263.392 92.088 262.624 94.904C261.92 97.72 261.024 100.664 259.936 103.736C261.152 102.328 262.624 100.728 264.352 98.936C266.144 97.08 268.128 95.352 270.304 93.752C271.52 92.856 272.832 91.992 274.24 91.16C275.712 90.264 277.12 89.528 278.464 88.952C279.808 88.376 280.896 88.088 281.728 88.088C283.776 88.088 285.152 88.696 285.856 89.912C286.624 91.128 287.008 92.536 287.008 94.136C287.008 96.568 286.336 99.192 284.992 102.008C283.712 104.76 281.984 107.48 279.808 110.168C277.632 112.792 275.232 115.128 272.608 117.176C273.184 117.112 273.696 117.048 274.144 116.984C274.656 116.856 275.104 116.76 275.488 116.696C277.344 116.184 279.04 115.416 280.576 114.392C282.176 113.304 283.744 112.088 285.28 110.744C286.56 109.656 287.744 108.504 288.832 107.288C289.92 106.072 290.944 104.952 291.904 103.928C292.16 103.608 292.48 103.448 292.864 103.448ZM281.824 91.256C280.864 91.256 279.456 91.8 277.6 92.888C275.808 93.976 273.76 95.448 271.456 97.304C269.152 99.096 266.784 101.112 264.352 103.352C261.92 105.528 259.648 107.736 257.536 109.976C257.216 110.808 256.864 111.64 256.48 112.472C256.096 113.304 255.744 114.104 255.424 114.872C255.36 115 255.296 115.16 255.232 115.352C255.168 115.48 255.104 115.64 255.04 115.832C255.36 115.64 255.648 115.544 255.904 115.544C256.224 115.544 256.608 115.704 257.056 116.024C257.504 116.344 257.856 116.568 258.112 116.696C259.392 117.336 260.672 117.72 261.952 117.848C263.232 117.912 264.64 117.816 266.176 117.56C268.416 116.408 270.56 114.808 272.608 112.76C274.656 110.648 276.48 108.408 278.08 106.04C279.744 103.672 281.056 101.4 282.016 99.224C282.976 97.048 283.456 95.256 283.456 93.848C283.456 93.144 283.392 92.536 283.264 92.024C283.136 91.512 282.656 91.256 281.824 91.256ZM230.079 149.24C233.855 145.528 237.343 141.208 240.543 136.28C243.679 131.416 246.432 126.328 248.8 121.016C248.16 121.528 247.072 122.456 245.535 123.8C243.935 125.208 242.143 126.872 240.159 128.792C238.111 130.712 236.095 132.792 234.111 135.032C232.063 137.336 230.303 139.64 228.831 141.944C227.295 144.312 226.239 146.584 225.663 148.76C225.599 149.016 225.567 149.336 225.567 149.72C225.567 150.68 225.951 151.16 226.719 151.16C227.679 151.16 228.799 150.52 230.079 149.24ZM310.083 89.144C309.315 89.144 308.611 88.888 307.971 88.376C307.395 87.8 307.107 87.096 307.107 86.264C307.107 85.368 307.395 84.632 307.971 84.056C308.547 83.48 309.251 83.192 310.083 83.192C310.979 83.192 311.715 83.48 312.291 84.056C312.867 84.632 313.155 85.368 313.155 86.264C313.155 87.096 312.835 87.8 312.195 88.376C311.619 88.888 310.915 89.144 310.083 89.144ZM295.875 117.944C295.043 117.944 294.371 117.72 293.859 117.272C293.347 116.76 293.091 115.96 293.091 114.872C293.091 113.528 293.411 111.896 294.051 109.976C294.691 107.992 295.523 105.976 296.547 103.928C297.571 101.816 298.659 99.896 299.811 98.168C301.027 96.376 302.179 94.968 303.267 93.944C303.715 93.496 304.259 93.272 304.899 93.272C305.411 93.272 305.859 93.4 306.243 93.656C306.627 93.912 306.819 94.232 306.819 94.616C306.819 94.936 306.659 95.256 306.339 95.576C305.891 96.024 305.315 96.76 304.611 97.784C303.971 98.744 303.331 99.768 302.691 100.856C302.051 101.88 301.571 102.744 301.251 103.448C300.675 104.664 300.035 106.04 299.331 107.576C298.627 109.112 298.115 110.36 297.795 111.32C297.603 111.96 297.507 112.44 297.507 112.76C297.507 113.464 297.763 113.816 298.275 113.816C298.723 113.816 299.235 113.624 299.811 113.24C300.387 112.792 300.899 112.408 301.347 112.088C302.947 110.808 304.419 109.464 305.763 108.056C307.171 106.584 308.451 105.208 309.603 103.928C309.859 103.608 310.179 103.448 310.563 103.448C310.883 103.448 311.171 103.64 311.427 104.024C311.747 104.344 311.907 104.76 311.907 105.272C311.907 105.848 311.747 106.328 311.427 106.712C310.467 108.056 309.123 109.56 307.395 111.224C305.731 112.824 304.259 114.104 302.979 115.064C302.147 115.704 301.027 116.344 299.619 116.984C298.275 117.624 297.027 117.944 295.875 117.944ZM325.306 118.424C324.154 118.424 323.194 118.104 322.426 117.464C321.722 116.824 321.37 115.928 321.37 114.776C321.37 112.344 321.978 109.912 323.194 107.48C324.41 104.984 325.786 102.552 327.322 100.184C328.922 97.752 330.234 95.512 331.258 93.464C330.234 94.168 329.082 94.68 327.802 95C326.522 95.32 325.274 95.48 324.058 95.48C322.33 95.48 320.986 95.256 320.026 94.808C318.81 96.92 317.402 99.064 315.802 101.24C314.202 103.352 312.634 105.272 311.098 107C309.626 108.728 308.378 110.04 307.354 110.936C306.906 111.32 306.458 111.512 306.01 111.512C305.562 111.512 305.178 111.352 304.858 111.032C304.538 110.712 304.378 110.36 304.378 109.976C304.378 109.656 304.506 109.368 304.762 109.112C305.914 107.896 307.258 106.328 308.794 104.408C310.394 102.488 311.962 100.44 313.498 98.264C315.098 96.088 316.41 94.072 317.434 92.216C317.37 90.936 317.53 89.496 317.914 87.896C318.362 86.296 318.938 84.76 319.642 83.288C320.41 81.816 321.242 80.6 322.138 79.64C323.034 78.616 323.962 78.104 324.922 78.104C325.946 78.104 326.458 78.712 326.458 79.928C326.458 80.952 326.138 82.264 325.498 83.864C324.922 85.464 324.218 87.032 323.386 88.568C322.618 90.04 321.946 91.256 321.37 92.216C322.202 92.472 323.066 92.6 323.962 92.6C325.498 92.6 326.842 92.312 327.994 91.736C329.146 91.096 330.17 90.488 331.066 89.912C331.962 89.272 332.73 88.952 333.37 88.952C334.202 88.952 334.746 89.176 335.002 89.624C335.322 90.008 335.482 90.52 335.482 91.16C335.482 92.376 335.162 93.72 334.522 95.192C333.882 96.6 333.402 97.496 333.082 97.88C332.634 98.584 331.962 99.64 331.066 101.048C330.17 102.392 329.274 103.832 328.378 105.368C327.482 106.904 326.746 108.376 326.17 109.784C325.914 110.488 325.658 111.224 325.402 111.992C325.21 112.696 325.114 113.304 325.114 113.816C325.114 114.648 325.466 115.064 326.17 115.064C326.81 115.064 327.738 114.744 328.954 114.104C330.49 113.272 331.898 112.216 333.178 110.936C334.522 109.592 335.674 108.44 336.634 107.48C336.698 107.416 336.986 107.096 337.498 106.52C338.074 105.944 338.618 105.368 339.13 104.792C339.706 104.216 339.994 103.928 339.994 103.928C340.25 103.608 340.57 103.448 340.954 103.448C341.274 103.448 341.562 103.64 341.818 104.024C342.138 104.344 342.298 104.76 342.298 105.272C342.298 105.848 342.138 106.328 341.818 106.712C340.858 108.056 339.546 109.528 337.882 111.128C336.218 112.728 334.746 114.04 333.466 115.064C332.122 116.088 330.746 116.92 329.338 117.56C327.994 118.136 326.65 118.424 325.306 118.424ZM344.252 120.632C342.076 120.632 340.54 120.024 339.644 118.808C338.748 117.528 338.3 115.96 338.3 114.104C338.3 112.568 338.524 110.904 338.972 109.112C339.484 107.256 340.124 105.432 340.892 103.64C340.956 101.144 341.628 98.68 342.908 96.248C344.252 93.816 346.044 91.8 348.284 90.2C350.588 88.6 353.276 87.8 356.348 87.8C359.356 87.8 361.436 88.664 362.588 90.392C363.804 92.12 364.412 94.168 364.412 96.536C364.412 97.944 364.252 99.384 363.932 100.856C363.612 102.264 363.196 103.608 362.684 104.888C362.172 106.168 361.532 107.48 360.764 108.824C359.996 110.104 359.132 111.384 358.172 112.664C360.092 112.344 361.756 111.736 363.164 110.84C364.636 109.88 366.108 108.568 367.58 106.904C369.052 105.24 370.78 103.128 372.764 100.568C373.148 100.12 373.564 99.896 374.012 99.896C374.524 99.896 374.94 100.056 375.26 100.376C375.644 100.696 375.836 101.112 375.836 101.624C375.836 102.008 375.708 102.36 375.452 102.68C373.596 105.24 371.708 107.544 369.788 109.592C367.932 111.64 365.82 113.24 363.452 114.392C361.084 115.544 358.236 116.12 354.908 116.12C353.372 117.464 351.708 118.552 349.916 119.384C348.124 120.216 346.236 120.632 344.252 120.632ZM349.82 95.768C349.052 96.344 348.124 97.496 347.036 99.224C345.948 100.952 344.956 102.84 344.06 104.888C344.188 106.872 344.988 108.664 346.46 110.264C347.996 111.8 350.332 112.664 353.468 112.856C355.772 110.616 357.628 107.992 359.036 104.984C360.444 101.912 361.148 99.16 361.148 96.728C361.148 95.064 360.764 93.72 359.996 92.696C359.228 91.672 358.012 91.16 356.348 91.16C355.196 91.16 354.076 91.352 352.988 91.736C351.9 92.12 350.908 92.632 350.012 93.272C350.332 93.592 350.492 93.976 350.492 94.424C350.492 94.936 350.268 95.384 349.82 95.768ZM341.66 113.912C341.66 114.936 341.852 115.768 342.236 116.408C342.684 116.984 343.356 117.272 344.252 117.272C346.108 117.272 347.996 116.696 349.916 115.544C348.06 115.096 346.492 114.392 345.212 113.432C343.932 112.408 342.94 111.256 342.236 109.976C341.852 111.512 341.66 112.824 341.66 113.912Z" fill="black"/>
<defs>
<linearGradient id="paint0_linear_70_328" x1="66.75" y1="22.5" x2="66.75" y2="189.5" gradientUnits="userSpaceOnUse">
<stop offset="0.145" stop-color="#5CD6FF"/>
<stop offset="0.907321" stop-color="#074690"/>
<stop offset="1" stop-color="#074791"/>
</linearGradient>
<linearGradient id="paint1_linear_70_328" x1="67.25" y1="49.5" x2="67.25" y2="163" gradientUnits="userSpaceOnUse">
<stop stop-color="#5CD6FF"/>
<stop offset="1" stop-color="#023E8A"/>
</linearGradient>
<linearGradient id="paint2_linear_70_328" x1="50.5" y1="3" x2="50.5" y2="50" gradientUnits="userSpaceOnUse">
<stop stop-color="#5CD6FF"/>
<stop offset="1" stop-color="#023E8A"/>
</linearGradient>
<linearGradient id="paint3_linear_70_328" x1="14.75" y1="49.5" x2="14.75" y2="69" gradientUnits="userSpaceOnUse">
<stop stop-color="#023E8A"/>
<stop offset="1" stop-color="#023E8A"/>
</linearGradient>
<linearGradient id="paint4_linear_70_328" x1="42.5" y1="12" x2="42.5" y2="55.5" gradientUnits="userSpaceOnUse">
<stop stop-color="#5CD6FF"/>
<stop offset="1" stop-color="#023E8A"/>
</linearGradient>
<linearGradient id="paint5_linear_70_328" x1="14.75" y1="50.5" x2="14.75" y2="189.001" gradientUnits="userSpaceOnUse">
<stop stop-color="#023E8A"/>
<stop offset="1" stop-color="#33415C"/>
</linearGradient>
<linearGradient id="paint6_linear_70_328" x1="41.5" y1="80.5" x2="41.5" y2="163" gradientUnits="userSpaceOnUse">
<stop stop-color="#00B0ED"/>
<stop offset="1" stop-color="#4E80E1"/>
</linearGradient>
<linearGradient id="paint7_linear_70_328" x1="29" y1="69.5" x2="29" y2="188.5" gradientUnits="userSpaceOnUse">
<stop stop-color="#00B0ED"/>
<stop offset="1" stop-color="#023E8A"/>
</linearGradient>
<linearGradient id="paint8_linear_70_328" x1="15.25" y1="162.5" x2="15.25" y2="178.5" gradientUnits="userSpaceOnUse">
<stop stop-color="#023E8A"/>
<stop offset="0.0001" stop-color="#33415C"/>
<stop offset="1" stop-color="#023E8A"/>
</linearGradient>
<linearGradient id="paint9_linear_70_328" x1="14.5" y1="85.5" x2="14.5" y2="162" gradientUnits="userSpaceOnUse">
<stop stop-color="#023E8A"/>
<stop offset="1" stop-color="#33415C"/>
</linearGradient>
<linearGradient id="paint10_linear_70_328" x1="14.75" y1="65" x2="14.75" y2="79.5158" gradientUnits="userSpaceOnUse">
<stop stop-color="#023E8A"/>
<stop offset="1" stop-color="#00B0ED"/>
</linearGradient>
</defs>
</svg>
