<svg width="24" height="23" viewBox="0 0 24 23" fill="none" xmlns="http://www.w3.org/2000/svg">
<path d="M12 12.544C15.7266 12.544 18.75 9.73466 18.75 6.272C18.75 2.80933 15.7266 0 12 0C8.27344 0 5.25 2.80933 5.25 6.272C5.25 9.73466 8.27344 12.544 12 12.544ZM18 13.9378H15.4172C14.3766 14.382 13.2188 14.6347 12 14.6347C10.7812 14.6347 9.62813 14.382 8.58281 13.9378H6C2.68594 13.9378 0 16.4335 0 19.5129V20.2098C0 21.364 1.00781 22.3004 2.25 22.3004H21.75C22.9922 22.3004 24 21.364 24 20.2098V19.5129C24 16.4335 21.3141 13.9378 18 13.9378Z" fill="black"/>
</svg>
