<svg width="32" height="30" viewBox="0 0 32 30" fill="none" xmlns="http://www.w3.org/2000/svg">
<path d="M15.9465 24.6842L15.6883 24.5281L15.4297 24.6838L7.82141 29.2671L7.82052 29.2677C6.80757 29.8808 5.5678 28.9766 5.83476 27.8287L7.85137 19.1756L7.91984 18.8818L7.69185 18.6842L0.963515 12.8542L0.963339 12.8541C0.0682743 12.0792 0.552491 10.6151 1.72074 10.5222L1.72338 10.522L10.5784 9.77029L10.8785 9.74481L10.9963 9.46755L14.4613 1.30921L14.4621 1.30727C14.9139 0.23091 16.4616 0.230911 16.9134 1.30727L16.9141 1.30884L20.3791 9.48551L20.4967 9.76312L20.7971 9.78863L29.6521 10.5403L29.6548 10.5405C30.823 10.6334 31.3072 12.0976 30.4122 12.8724L30.412 12.8725L23.6837 18.7025L23.4557 18.9001L23.5241 19.1939L25.5407 27.847C25.5408 27.8471 25.5408 27.8472 25.5408 27.8472C25.8075 28.995 24.5679 29.8991 23.555 29.286L23.5548 29.2859L15.9465 24.6842Z" fill="white" stroke="black"/>
</svg>
